<?xml version='1.0' encoding='utf-8'?>
<svg xmlns="http://www.w3.org/2000/svg" width="1055" height="852" viewBox="0 0 1055 852" role="img" aria-labelledby="title desc"><title id="title">Book Three Architecture Density</title><desc id="desc">Column-normalized analytics. Color indicates relative intensity, not quality.</desc><rect width="100%" height="100%" fill="#f7f7f3" /><g font-family="DejaVu Sans, sans-serif" fill="#141719"><text x="20" y="35" font-size="22" font-weight="700">BOOK THREE ARCHITECTURE DENSITY</text><text x="372.5" y="76" text-anchor="middle" font-size="13">modules</text><text x="517.5" y="76" text-anchor="middle" font-size="13">incoming</text><text x="662.5" y="76" text-anchor="middle" font-size="13">internal</text><text x="807.5" y="76" text-anchor="middle" font-size="13">outgoing</text><text x="952.5" y="76" text-anchor="middle" font-size="13">cross-crate</text><text x="20" y="130" font-size="14">Chapter 1</text><rect x="300" y="100" width="141" height="44" fill="#f7f7f3" stroke="#141719" stroke-width="1"><title>Chapter 1; modules: 1</title></rect><text x="370.5" y="129" text-anchor="middle" font-size="13">1</text><rect x="445" y="100" width="141" height="44" fill="#f7f7f3" stroke="#141719" stroke-width="1"><title>Chapter 1; incoming: 0</title></rect><text x="515.5" y="129" text-anchor="middle" font-size="13">0</text><rect x="590" y="100" width="141" height="44" fill="#f7f7f3" stroke="#141719" stroke-width="1"><title>Chapter 1; internal: 0</title></rect><text x="660.5" y="129" text-anchor="middle" font-size="13">0</text><rect x="735" y="100" width="141" height="44" fill="#b9ddea" stroke="#141719" stroke-width="1"><title>Chapter 1; outgoing: 2</title></rect><text x="805.5" y="129" text-anchor="middle" font-size="13">2</text><rect x="880" y="100" width="141" height="44" fill="#cee6ed" stroke="#141719" stroke-width="1"><title>Chapter 1; cross-crate: 1</title></rect><text x="950.5" y="129" text-anchor="middle" font-size="13">1</text><text x="20" y="178" font-size="14">Chapter 2</text><rect x="300" y="148" width="141" height="44" fill="#f7f7f3" stroke="#141719" stroke-width="1"><title>Chapter 2; modules: 1</title></rect><text x="370.5" y="177" text-anchor="middle" font-size="13">1</text><rect x="445" y="148" width="141" height="44" fill="#f7f7f3" stroke="#141719" stroke-width="1"><title>Chapter 2; incoming: 0</title></rect><text x="515.5" y="177" text-anchor="middle" font-size="13">0</text><rect x="590" y="148" width="141" height="44" fill="#f7f7f3" stroke="#141719" stroke-width="1"><title>Chapter 2; internal: 0</title></rect><text x="660.5" y="177" text-anchor="middle" font-size="13">0</text><rect x="735" y="148" width="141" height="44" fill="#b9ddea" stroke="#141719" stroke-width="1"><title>Chapter 2; outgoing: 2</title></rect><text x="805.5" y="177" text-anchor="middle" font-size="13">2</text><rect x="880" y="148" width="141" height="44" fill="#cee6ed" stroke="#141719" stroke-width="1"><title>Chapter 2; cross-crate: 1</title></rect><text x="950.5" y="177" text-anchor="middle" font-size="13">1</text><text x="20" y="226" font-size="14">Chapter 3</text><rect x="300" y="196" width="141" height="44" fill="#f7f7f3" stroke="#141719" stroke-width="1"><title>Chapter 3; modules: 1</title></rect><text x="370.5" y="225" text-anchor="middle" font-size="13">1</text><rect x="445" y="196" width="141" height="44" fill="#d9e8cb" stroke="#141719" stroke-width="1"><title>Chapter 3; incoming: 2</title></rect><text x="515.5" y="225" text-anchor="middle" font-size="13">2</text><rect x="590" y="196" width="141" height="44" fill="#f7f7f3" stroke="#141719" stroke-width="1"><title>Chapter 3; internal: 0</title></rect><text x="660.5" y="225" text-anchor="middle" font-size="13">0</text><rect x="735" y="196" width="141" height="44" fill="#d8eaee" stroke="#141719" stroke-width="1"><title>Chapter 3; outgoing: 1</title></rect><text x="805.5" y="225" text-anchor="middle" font-size="13">1</text><rect x="880" y="196" width="141" height="44" fill="#cee6ed" stroke="#141719" stroke-width="1"><title>Chapter 3; cross-crate: 1</title></rect><text x="950.5" y="225" text-anchor="middle" font-size="13">1</text><text x="20" y="274" font-size="14">Chapter 4</text><rect x="300" y="244" width="141" height="44" fill="#efefb7" stroke="#141719" stroke-width="1"><title>Chapter 4; modules: 2</title></rect><text x="370.5" y="273" text-anchor="middle" font-size="13">2</text><rect x="445" y="244" width="141" height="44" fill="#f7f7f3" stroke="#141719" stroke-width="1"><title>Chapter 4; incoming: 0</title></rect><text x="515.5" y="273" text-anchor="middle" font-size="13">0</text><rect x="590" y="244" width="141" height="44" fill="#cbe3d9" stroke="#141719" stroke-width="1"><title>Chapter 4; internal: 1</title></rect><text x="660.5" y="273" text-anchor="middle" font-size="13">1</text><rect x="735" y="244" width="141" height="44" fill="#efd8c2" stroke="#141719" stroke-width="1"><title>Chapter 4; outgoing: 7</title></rect><text x="805.5" y="273" text-anchor="middle" font-size="13">7</text><rect x="880" y="244" width="141" height="44" fill="#efdabb" stroke="#141719" stroke-width="1"><title>Chapter 4; cross-crate: 5</title></rect><text x="950.5" y="273" text-anchor="middle" font-size="13">5</text><text x="20" y="322" font-size="14">Chapter 5</text><rect x="300" y="292" width="141" height="44" fill="#efefb7" stroke="#141719" stroke-width="1"><title>Chapter 5; modules: 2</title></rect><text x="370.5" y="321" text-anchor="middle" font-size="13">2</text><rect x="445" y="292" width="141" height="44" fill="#f7f7f3" stroke="#141719" stroke-width="1"><title>Chapter 5; incoming: 0</title></rect><text x="515.5" y="321" text-anchor="middle" font-size="13">0</text><rect x="590" y="292" width="141" height="44" fill="#cbe3d9" stroke="#141719" stroke-width="1"><title>Chapter 5; internal: 1</title></rect><text x="660.5" y="321" text-anchor="middle" font-size="13">1</text><rect x="735" y="292" width="141" height="44" fill="#b9ddea" stroke="#141719" stroke-width="1"><title>Chapter 5; outgoing: 2</title></rect><text x="805.5" y="321" text-anchor="middle" font-size="13">2</text><rect x="880" y="292" width="141" height="44" fill="#cee6ed" stroke="#141719" stroke-width="1"><title>Chapter 5; cross-crate: 1</title></rect><text x="950.5" y="321" text-anchor="middle" font-size="13">1</text><text x="20" y="370" font-size="14">Chapter 6</text><rect x="300" y="340" width="141" height="44" fill="#efefb7" stroke="#141719" stroke-width="1"><title>Chapter 6; modules: 2</title></rect><text x="370.5" y="369" text-anchor="middle" font-size="13">2</text><rect x="445" y="340" width="141" height="44" fill="#d9e8cb" stroke="#141719" stroke-width="1"><title>Chapter 6; incoming: 2</title></rect><text x="515.5" y="369" text-anchor="middle" font-size="13">2</text><rect x="590" y="340" width="141" height="44" fill="#f7f7f3" stroke="#141719" stroke-width="1"><title>Chapter 6; internal: 0</title></rect><text x="660.5" y="369" text-anchor="middle" font-size="13">0</text><rect x="735" y="340" width="141" height="44" fill="#efd5d5" stroke="#141719" stroke-width="1"><title>Chapter 6; outgoing: 8</title></rect><text x="805.5" y="369" text-anchor="middle" font-size="13">8</text><rect x="880" y="340" width="141" height="44" fill="#efdabb" stroke="#141719" stroke-width="1"><title>Chapter 6; cross-crate: 5</title></rect><text x="950.5" y="369" text-anchor="middle" font-size="13">5</text><text x="20" y="418" font-size="14">Chapter 7</text><rect x="300" y="388" width="141" height="44" fill="#efefb7" stroke="#141719" stroke-width="1"><title>Chapter 7; modules: 2</title></rect><text x="370.5" y="417" text-anchor="middle" font-size="13">2</text><rect x="445" y="388" width="141" height="44" fill="#efe7b3" stroke="#141719" stroke-width="1"><title>Chapter 7; incoming: 3</title></rect><text x="515.5" y="417" text-anchor="middle" font-size="13">3</text><rect x="590" y="388" width="141" height="44" fill="#cbe3d9" stroke="#141719" stroke-width="1"><title>Chapter 7; internal: 1</title></rect><text x="660.5" y="417" text-anchor="middle" font-size="13">1</text><rect x="735" y="388" width="141" height="44" fill="#d8eaee" stroke="#141719" stroke-width="1"><title>Chapter 7; outgoing: 1</title></rect><text x="805.5" y="417" text-anchor="middle" font-size="13">1</text><rect x="880" y="388" width="141" height="44" fill="#cbe3d9" stroke="#141719" stroke-width="1"><title>Chapter 7; cross-crate: 2</title></rect><text x="950.5" y="417" text-anchor="middle" font-size="13">2</text><text x="20" y="466" font-size="14">Chapter 8</text><rect x="300" y="436" width="141" height="44" fill="#f7f7f3" stroke="#141719" stroke-width="1"><title>Chapter 8; modules: 1</title></rect><text x="370.5" y="465" text-anchor="middle" font-size="13">1</text><rect x="445" y="436" width="141" height="44" fill="#d9e8cb" stroke="#141719" stroke-width="1"><title>Chapter 8; incoming: 2</title></rect><text x="515.5" y="465" text-anchor="middle" font-size="13">2</text><rect x="590" y="436" width="141" height="44" fill="#f7f7f3" stroke="#141719" stroke-width="1"><title>Chapter 8; internal: 0</title></rect><text x="660.5" y="465" text-anchor="middle" font-size="13">0</text><rect x="735" y="436" width="141" height="44" fill="#d8eaee" stroke="#141719" stroke-width="1"><title>Chapter 8; outgoing: 1</title></rect><text x="805.5" y="465" text-anchor="middle" font-size="13">1</text><rect x="880" y="436" width="141" height="44" fill="#cee6ed" stroke="#141719" stroke-width="1"><title>Chapter 8; cross-crate: 1</title></rect><text x="950.5" y="465" text-anchor="middle" font-size="13">1</text><text x="20" y="514" font-size="14">Chapter 9</text><rect x="300" y="484" width="141" height="44" fill="#efefb7" stroke="#141719" stroke-width="1"><title>Chapter 9; modules: 2</title></rect><text x="370.5" y="513" text-anchor="middle" font-size="13">2</text><rect x="445" y="484" width="141" height="44" fill="#efdbb6" stroke="#141719" stroke-width="1"><title>Chapter 9; incoming: 4</title></rect><text x="515.5" y="513" text-anchor="middle" font-size="13">4</text><rect x="590" y="484" width="141" height="44" fill="#f7f7f3" stroke="#141719" stroke-width="1"><title>Chapter 9; internal: 0</title></rect><text x="660.5" y="513" text-anchor="middle" font-size="13">0</text><rect x="735" y="484" width="141" height="44" fill="#b9ddea" stroke="#141719" stroke-width="1"><title>Chapter 9; outgoing: 2</title></rect><text x="805.5" y="513" text-anchor="middle" font-size="13">2</text><rect x="880" y="484" width="141" height="44" fill="#cbe3d9" stroke="#141719" stroke-width="1"><title>Chapter 9; cross-crate: 2</title></rect><text x="950.5" y="513" text-anchor="middle" font-size="13">2</text><text x="20" y="562" font-size="14">Chapter 10</text><rect x="300" y="532" width="141" height="44" fill="#efd5d5" stroke="#141719" stroke-width="1"><title>Chapter 10; modules: 3</title></rect><text x="370.5" y="561" text-anchor="middle" font-size="13">3</text><rect x="445" y="532" width="141" height="44" fill="#efe7b3" stroke="#141719" stroke-width="1"><title>Chapter 10; incoming: 3</title></rect><text x="515.5" y="561" text-anchor="middle" font-size="13">3</text><rect x="590" y="532" width="141" height="44" fill="#efd5d5" stroke="#141719" stroke-width="1"><title>Chapter 10; internal: 3</title></rect><text x="660.5" y="561" text-anchor="middle" font-size="13">3</text><rect x="735" y="532" width="141" height="44" fill="#d4e6d0" stroke="#141719" stroke-width="1"><title>Chapter 10; outgoing: 3</title></rect><text x="805.5" y="561" text-anchor="middle" font-size="13">3</text><rect x="880" y="532" width="141" height="44" fill="#efd5d5" stroke="#141719" stroke-width="1"><title>Chapter 10; cross-crate: 6</title></rect><text x="950.5" y="561" text-anchor="middle" font-size="13">6</text><text x="20" y="610" font-size="14">Chapter 11</text><rect x="300" y="580" width="141" height="44" fill="#f7f7f3" stroke="#141719" stroke-width="1"><title>Chapter 11; modules: 1</title></rect><text x="370.5" y="609" text-anchor="middle" font-size="13">1</text><rect x="445" y="580" width="141" height="44" fill="#efd5d5" stroke="#141719" stroke-width="1"><title>Chapter 11; incoming: 5</title></rect><text x="515.5" y="609" text-anchor="middle" font-size="13">5</text><rect x="590" y="580" width="141" height="44" fill="#f7f7f3" stroke="#141719" stroke-width="1"><title>Chapter 11; internal: 0</title></rect><text x="660.5" y="609" text-anchor="middle" font-size="13">0</text><rect x="735" y="580" width="141" height="44" fill="#b9ddea" stroke="#141719" stroke-width="1"><title>Chapter 11; outgoing: 2</title></rect><text x="805.5" y="609" text-anchor="middle" font-size="13">2</text><rect x="880" y="580" width="141" height="44" fill="#f7f7f3" stroke="#141719" stroke-width="1"><title>Chapter 11; cross-crate: 0</title></rect><text x="950.5" y="609" text-anchor="middle" font-size="13">0</text><text x="20" y="658" font-size="14">Chapter 12</text><rect x="300" y="628" width="141" height="44" fill="#f7f7f3" stroke="#141719" stroke-width="1"><title>Chapter 12; modules: 1</title></rect><text x="370.5" y="657" text-anchor="middle" font-size="13">1</text><rect x="445" y="628" width="141" height="44" fill="#efdbb6" stroke="#141719" stroke-width="1"><title>Chapter 12; incoming: 4</title></rect><text x="515.5" y="657" text-anchor="middle" font-size="13">4</text><rect x="590" y="628" width="141" height="44" fill="#f7f7f3" stroke="#141719" stroke-width="1"><title>Chapter 12; internal: 0</title></rect><text x="660.5" y="657" text-anchor="middle" font-size="13">0</text><rect x="735" y="628" width="141" height="44" fill="#b9ddea" stroke="#141719" stroke-width="1"><title>Chapter 12; outgoing: 2</title></rect><text x="805.5" y="657" text-anchor="middle" font-size="13">2</text><rect x="880" y="628" width="141" height="44" fill="#f7f7f3" stroke="#141719" stroke-width="1"><title>Chapter 12; cross-crate: 0</title></rect><text x="950.5" y="657" text-anchor="middle" font-size="13">0</text><text x="20" y="706" font-size="14">Chapter 13</text><rect x="300" y="676" width="141" height="44" fill="#f7f7f3" stroke="#141719" stroke-width="1"><title>Chapter 13; modules: 1</title></rect><text x="370.5" y="705" text-anchor="middle" font-size="13">1</text><rect x="445" y="676" width="141" height="44" fill="#efd5d5" stroke="#141719" stroke-width="1"><title>Chapter 13; incoming: 5</title></rect><text x="515.5" y="705" text-anchor="middle" font-size="13">5</text><rect x="590" y="676" width="141" height="44" fill="#f7f7f3" stroke="#141719" stroke-width="1"><title>Chapter 13; internal: 0</title></rect><text x="660.5" y="705" text-anchor="middle" font-size="13">0</text><rect x="735" y="676" width="141" height="44" fill="#d8eaee" stroke="#141719" stroke-width="1"><title>Chapter 13; outgoing: 1</title></rect><text x="805.5" y="705" text-anchor="middle" font-size="13">1</text><rect x="880" y="676" width="141" height="44" fill="#f7f7f3" stroke="#141719" stroke-width="1"><title>Chapter 13; cross-crate: 0</title></rect><text x="950.5" y="705" text-anchor="middle" font-size="13">0</text><text x="20" y="754" font-size="14">Chapter 14</text><rect x="300" y="724" width="141" height="44" fill="#f7f7f3" stroke="#141719" stroke-width="1"><title>Chapter 14; modules: 1</title></rect><text x="370.5" y="753" text-anchor="middle" font-size="13">1</text><rect x="445" y="724" width="141" height="44" fill="#efdbb6" stroke="#141719" stroke-width="1"><title>Chapter 14; incoming: 4</title></rect><text x="515.5" y="753" text-anchor="middle" font-size="13">4</text><rect x="590" y="724" width="141" height="44" fill="#f7f7f3" stroke="#141719" stroke-width="1"><title>Chapter 14; internal: 0</title></rect><text x="660.5" y="753" text-anchor="middle" font-size="13">0</text><rect x="735" y="724" width="141" height="44" fill="#f7f7f3" stroke="#141719" stroke-width="1"><title>Chapter 14; outgoing: 0</title></rect><text x="805.5" y="753" text-anchor="middle" font-size="13">0</text><rect x="880" y="724" width="141" height="44" fill="#f7f7f3" stroke="#141719" stroke-width="1"><title>Chapter 14; cross-crate: 0</title></rect><text x="950.5" y="753" text-anchor="middle" font-size="13">0</text><text x="20" y="807" font-size="13">lower relative intensity</text><rect x="175" y="791" width="180" height="20" fill="url(#scale)" stroke="#141719" stroke-width="1" /><text x="365" y="807" font-size="13">higher relative intensity</text></g><defs><linearGradient id="scale"><stop offset="0" stop-color="#f7f7f3" /><stop offset="0.33" stop-color="#b9ddea" /><stop offset="0.66" stop-color="#efefb7" /><stop offset="1" stop-color="#efd5d5" /></linearGradient></defs></svg>